# xmcd
#
# Track frame offsets:
#	150
#	13282
#	25467
#	39588
#	49525
#	71181
#	94655
#	110927
#	127072
#	145005
#
# Disc length: 2189 seconds
#
# Revision: 1
# Processed by: cddbd v1.5.1PL0 Copyright (c) Steve Scherf et al.
# Submitted via: EasyCDDAExtractor 7.0.5.4
#
DISCID=94088b0a
DTITLE=The Alabama Crossmen - More To Give
DYEAR=2003
DGENRE=Gospel
TTITLE0=Smpoke On The Mountain
TTITLE1=Baby From Bethlehem
TTITLE2=More To Give
TTITLE3=I Qualify
TTITLE4=I Could Still Go Free
TTITLE5=Tribute To Gospel Music
TTITLE6=My Lord In Mercy
TTITLE7=Don't Laugh At Me
TTITLE8=Had It Not Been
TTITLE9=House Of Gold
EXTD=
EXTT0=
EXTT1=
EXTT2=
EXTT3=
EXTT4=
EXTT5=
EXTT6=
EXTT7=
EXTT8=
EXTT9=
PLAYORDER=
